<svg xmlns="http://www.w3.org/2000/svg" viewBox="0 0 16 16" width="16" height="16">
  <!-- Background -->
  <rect width="16" height="16" fill="#667eea" rx="2"/>
  
  <!-- Game board -->
  <rect x="2" y="2" width="12" height="12" fill="#f8f9fa" rx="1"/>
  
  <!-- Grid lines -->
  <line x1="5" y1="2" x2="5" y2="14" stroke="#ddd" stroke-width="0.2"/>
  <line x1="8" y1="2" x2="8" y2="14" stroke="#ddd" stroke-width="0.2"/>
  <line x1="11" y1="2" x2="11" y2="14" stroke="#ddd" stroke-width="0.2"/>
  <line x1="2" y1="5" x2="14" y2="5" stroke="#ddd" stroke-width="0.2"/>
  <line x1="2" y1="8" x2="14" y2="8" stroke="#ddd" stroke-width="0.2"/>
  <line x1="2" y1="11" x2="14" y2="11" stroke="#ddd" stroke-width="0.2"/>
  
  <!-- Snake -->
  <path d="M11 3.5 Q12 4.5 11 5.5 Q10 6.5 11 7.5" stroke="#e74c3c" stroke-width="1" fill="none" stroke-linecap="round"/>
  <circle cx="11" cy="3.5" r="0.5" fill="#c0392b"/>
  
  <!-- Ladder -->
  <rect x="4" y="9" width="0.5" height="3" fill="#27ae60"/>
  <rect x="5.5" y="9" width="0.5" height="3" fill="#27ae60"/>
  <rect x="4" y="9.5" width="2" height="0.2" fill="#27ae60"/>
  <rect x="4" y="10.5" width="2" height="0.2" fill="#27ae60"/>
  <rect x="4" y="11.5" width="2" height="0.2" fill="#27ae60"/>
  
  <!-- Dice -->
  <rect x="7" y="6" width="2" height="2" fill="white" stroke="#333" stroke-width="0.2" rx="0.2"/>
  <circle cx="7.5" cy="6.5" r="0.2" fill="#333"/>
  <circle cx="8.5" cy="7.5" r="0.2" fill="#333"/>
  
  <!-- Player tokens -->
  <circle cx="3" cy="13" r="0.7" fill="#ff6b6b" stroke="white" stroke-width="0.2"/>
  <circle cx="5" cy="12" r="0.7" fill="#4ecdc4" stroke="white" stroke-width="0.2"/>
</svg>
