<svg xmlns="http://www.w3.org/2000/svg" viewBox="0 0 32 32" width="32" height="32">
  <!-- Background -->
  <rect width="32" height="32" fill="#667eea" rx="4"/>
  
  <!-- Game board -->
  <rect x="4" y="4" width="24" height="24" fill="#f8f9fa" rx="2"/>
  
  <!-- Grid lines -->
  <line x1="10" y1="4" x2="10" y2="28" stroke="#ddd" stroke-width="0.4"/>
  <line x1="16" y1="4" x2="16" y2="28" stroke="#ddd" stroke-width="0.4"/>
  <line x1="22" y1="4" x2="22" y2="28" stroke="#ddd" stroke-width="0.4"/>
  <line x1="4" y1="10" x2="28" y2="10" stroke="#ddd" stroke-width="0.4"/>
  <line x1="4" y1="16" x2="28" y2="16" stroke="#ddd" stroke-width="0.4"/>
  <line x1="4" y1="22" x2="28" y2="22" stroke="#ddd" stroke-width="0.4"/>
  
  <!-- Snake -->
  <path d="M22 7 Q26 10 22 13 Q18 16 22 19" stroke="#e74c3c" stroke-width="2" fill="none" stroke-linecap="round"/>
  <circle cx="22" cy="7" r="1.2" fill="#c0392b"/>
  
  <!-- Ladder -->
  <rect x="8" y="18" width="1" height="6" fill="#27ae60"/>
  <rect x="11" y="18" width="1" height="6" fill="#27ae60"/>
  <rect x="8" y="19" width="4" height="0.4" fill="#27ae60"/>
  <rect x="8" y="21" width="4" height="0.4" fill="#27ae60"/>
  <rect x="8" y="23" width="4" height="0.4" fill="#27ae60"/>
  
  <!-- Dice -->
  <rect x="14" y="12" width="4" height="4" fill="white" stroke="#333" stroke-width="0.4" rx="0.4"/>
  <circle cx="15" cy="13" r="0.4" fill="#333"/>
  <circle cx="17" cy="15" r="0.4" fill="#333"/>
  
  <!-- Player tokens -->
  <circle cx="6" cy="26" r="1.4" fill="#ff6b6b" stroke="white" stroke-width="0.4"/>
  <circle cx="10" cy="24" r="1.4" fill="#4ecdc4" stroke="white" stroke-width="0.4"/>
</svg>
